<svg width="16" height="16" viewBox="0 0 16 16" fill="none" xmlns="http://www.w3.org/2000/svg">
<path d="M12.4715 8.45017C12.4639 7.1547 13.0508 6.17835 14.2361 5.45844C13.5732 4.50868 12.5702 3.98632 11.2482 3.88564C9.9964 3.78687 8.62685 4.61506 8.12538 4.61506C7.59542 4.61506 6.38353 3.91984 5.42998 3.91984C3.46209 3.95023 1.37073 5.48883 1.37073 8.61922C1.37073 9.54428 1.53978 10.4997 1.8779 11.4837C2.32998 12.7792 3.95976 15.9532 5.65982 15.9019C6.54879 15.881 7.17753 15.2713 8.33433 15.2713C9.45694 15.2713 10.0382 15.9019 11.0297 15.9019C12.745 15.8772 14.219 12.9919 14.6483 11.6926C12.348 10.608 12.4715 8.51665 12.4715 8.45017ZM10.4751 2.65666C11.4381 1.51316 11.3508 0.472226 11.3223 0.0980225C10.4713 0.14741 9.48733 0.677373 8.92698 1.3289C8.30964 2.02792 7.94683 2.8922 8.02471 3.86665C8.94407 3.93693 9.78366 3.46395 10.4751 2.65666Z" fill="white"/>
</svg>
