<svg width="12" height="12" viewBox="0 0 12 12" fill="none" xmlns="http://www.w3.org/2000/svg">
<path d="M9.35491 4.10505C9.30843 4.05819 9.25313 4.02099 9.1922 3.99561C9.13127 3.97022 9.06591 3.95715 8.99991 3.95715C8.9339 3.95715 8.86855 3.97022 8.80762 3.99561C8.74669 4.02099 8.69139 4.05819 8.64491 4.10505L6.35491 6.39505C6.30843 6.44191 6.25313 6.47911 6.1922 6.50449C6.13127 6.52988 6.06591 6.54295 5.99991 6.54295C5.9339 6.54295 5.86855 6.52988 5.80762 6.50449C5.74669 6.47911 5.69139 6.44191 5.64491 6.39505L3.35491 4.10505C3.30843 4.05819 3.25313 4.02099 3.1922 3.99561C3.13127 3.97022 3.06591 3.95715 2.99991 3.95715C2.9339 3.95715 2.86855 3.97022 2.80762 3.99561C2.74669 4.02099 2.69139 4.05819 2.64491 4.10505C2.55178 4.19873 2.49951 4.32546 2.49951 4.45755C2.49951 4.58964 2.55178 4.71637 2.64491 4.81005L4.93991 7.10505C5.22116 7.38595 5.60241 7.54373 5.99991 7.54373C6.39741 7.54373 6.77866 7.38595 7.05991 7.10505L9.35491 4.81005C9.44803 4.71637 9.50031 4.58964 9.50031 4.45755C9.50031 4.32546 9.44803 4.19873 9.35491 4.10505Z" fill="white"/>
</svg>
