<svg width="24" height="24" viewBox="0 0 24 24" fill="none" xmlns="http://www.w3.org/2000/svg">
<g clip-path="url(#clip0_40_1970)">
<path d="M24 6.83014C24.0008 6.96175 23.9756 7.09221 23.9258 7.21405C23.876 7.33588 23.8027 7.4467 23.71 7.54014L15.54 15.7101C15.0756 16.1758 14.5238 16.5452 13.9164 16.7973C13.3089 17.0493 12.6577 17.1791 12 17.1791C11.3424 17.1791 10.6912 17.0493 10.0837 16.7973C9.47626 16.5452 8.92451 16.1758 8.46005 15.7101L0.290063 7.54014C0.196824 7.4469 0.122863 7.33621 0.0724031 7.21439C0.0219428 7.09257 -0.00402877 6.962 -0.00402877 6.83014C-0.00402878 6.69828 0.0219428 6.56771 0.072403 6.44589C0.122863 6.32407 0.196824 6.21338 0.290062 6.12014C0.383301 6.0269 0.493991 5.95294 0.615813 5.90248C0.737635 5.85202 0.868203 5.82605 1.00006 5.82605C1.13192 5.82605 1.26249 5.85202 1.38431 5.90248C1.50613 5.95294 1.61682 6.0269 1.71006 6.12014L9.88005 14.2901C10.4426 14.8519 11.205 15.1675 12 15.1675C12.7951 15.1675 13.5575 14.8519 14.12 14.2901L22.29 6.12014C22.383 6.02641 22.4936 5.95201 22.6155 5.90125C22.7373 5.85048 22.868 5.82434 23 5.82434C23.132 5.82434 23.2628 5.85048 23.3846 5.90125C23.5065 5.95201 23.6171 6.02641 23.71 6.12014C23.8027 6.21358 23.876 6.32439 23.9258 6.44623C23.9756 6.56807 24.0008 6.69853 24 6.83014Z" fill="#A2A2B5"/>
</g>
<defs>
<clipPath id="clip0_40_1970">
<rect width="24" height="24" fill="white" transform="translate(0 24) rotate(-90)"/>
</clipPath>
</defs>
</svg>
