<svg width="32" height="32" viewBox="0 0 32 32" fill="none" xmlns="http://www.w3.org/2000/svg">
<g clip-path="url(#clip0_12_2997)">
<path d="M24.8999 8.29112C24.5477 7.32734 23.9081 6.49492 23.0675 5.90636C22.227 5.31779 21.226 5.00147 20.1999 5.00012H11.7999C10.7738 5.00147 9.77279 5.31779 8.93224 5.90636C8.09169 6.49492 7.45209 7.32734 7.09988 8.29112L4.39988 15.7181C4.13433 16.4496 3.99895 17.2219 3.99988 18.0001V19.0001C4.00167 19.7729 4.18332 20.5347 4.53045 21.2251C4.87758 21.9156 5.38067 22.5157 5.99988 22.9781C5.99988 22.9861 5.99988 22.9921 5.99988 23.0001V25.0001C5.99988 25.7958 6.31595 26.5588 6.87856 27.1214C7.44117 27.6841 8.20423 28.0001 8.99988 28.0001C9.79553 28.0001 10.5586 27.6841 11.1212 27.1214C11.6838 26.5588 11.9999 25.7958 11.9999 25.0001V24.0001H19.9999V25.0001C19.9999 25.7958 20.316 26.5588 20.8786 27.1214C21.4412 27.6841 22.2042 28.0001 22.9999 28.0001C23.7955 28.0001 24.5586 27.6841 25.1212 27.1214C25.6838 26.5588 25.9999 25.7958 25.9999 25.0001V23.0001C25.9999 22.9921 25.9999 22.9861 25.9999 22.9781C26.6191 22.5157 27.1222 21.9156 27.4693 21.2251C27.8165 20.5347 27.9981 19.7729 27.9999 19.0001V18.0001C28.0009 17.2223 27.8655 16.4502 27.5999 15.7191L24.8999 8.29112ZM8.98188 8.97512C9.19332 8.39729 9.57682 7.89817 10.0807 7.54503C10.5846 7.19189 11.1846 7.00171 11.7999 7.00012H20.1999C20.8155 7.0013 21.416 7.19129 21.9203 7.54446C22.4245 7.89763 22.8083 8.39697 23.0199 8.97512L25.2079 15.0001H6.79088L8.98188 8.97512ZM9.99988 25.0001C9.99988 25.2653 9.89453 25.5197 9.70699 25.7072C9.51945 25.8948 9.2651 26.0001 8.99988 26.0001C8.73467 26.0001 8.48031 25.8948 8.29278 25.7072C8.10524 25.5197 7.99988 25.2653 7.99988 25.0001V23.9001C8.32901 23.967 8.66404 24.0005 8.99988 24.0001H9.99988V25.0001ZM23.9999 25.0001C23.9999 25.2653 23.8945 25.5197 23.707 25.7072C23.5195 25.8948 23.2651 26.0001 22.9999 26.0001C22.7347 26.0001 22.4803 25.8948 22.2928 25.7072C22.1052 25.5197 21.9999 25.2653 21.9999 25.0001V24.0001H22.9999C23.3357 24.0005 23.6708 23.967 23.9999 23.9001V25.0001ZM25.9999 19.0001C25.9999 19.7958 25.6838 20.5588 25.1212 21.1214C24.5586 21.6841 23.7955 22.0001 22.9999 22.0001H8.99988C8.20423 22.0001 7.44117 21.6841 6.87856 21.1214C6.31595 20.5588 5.99988 19.7958 5.99988 19.0001V18.0001C6.00396 17.6634 6.04453 17.3281 6.12088 17.0001H7.99988V18.0001C7.99988 18.2653 8.10524 18.5197 8.29278 18.7072C8.48031 18.8948 8.73467 19.0001 8.99988 19.0001C9.2651 19.0001 9.51945 18.8948 9.70699 18.7072C9.89453 18.5197 9.99988 18.2653 9.99988 18.0001V17.0001H21.9999V18.0001C21.9999 18.2653 22.1052 18.5197 22.2928 18.7072C22.4803 18.8948 22.7347 19.0001 22.9999 19.0001C23.2651 19.0001 23.5195 18.8948 23.707 18.7072C23.8945 18.5197 23.9999 18.2653 23.9999 18.0001V17.0001H25.8789C25.9553 17.3281 25.9959 17.6634 25.9999 18.0001V19.0001Z" fill="#A2A2B5"/>
</g>
<defs>
<clipPath id="clip0_12_2997">
<rect width="24" height="24" fill="white" transform="translate(4 4)"/>
</clipPath>
</defs>
</svg>
