<svg width="66" height="24" viewBox="0 0 66 24" fill="none" xmlns="http://www.w3.org/2000/svg">
<g clip-path="url(#clip0_404_68)">
<path d="M29.25 3H27C26.2044 3 25.4413 3.31607 24.8787 3.87868C24.3161 4.44129 24 5.20435 24 6V8.25C24 9.04565 24.3161 9.80871 24.8787 10.3713C25.4413 10.9339 26.2044 11.25 27 11.25H29.25C30.0456 11.25 30.8087 10.9339 31.3713 10.3713C31.9339 9.80871 32.25 9.04565 32.25 8.25V6C32.25 5.20435 31.9339 4.44129 31.3713 3.87868C30.8087 3.31607 30.0456 3 29.25 3V3ZM30.75 8.25C30.75 8.64782 30.592 9.02936 30.3107 9.31066C30.0294 9.59196 29.6478 9.75 29.25 9.75H27C26.6022 9.75 26.2206 9.59196 25.9393 9.31066C25.658 9.02936 25.5 8.64782 25.5 8.25V6C25.5 5.60218 25.658 5.22064 25.9393 4.93934C26.2206 4.65804 26.6022 4.5 27 4.5H29.25C29.6478 4.5 30.0294 4.65804 30.3107 4.93934C30.592 5.22064 30.75 5.60218 30.75 6V8.25Z" fill="#A2A2B5"/>
<path d="M39 3H36.75C35.9543 3 35.1913 3.31607 34.6287 3.87868C34.0661 4.44129 33.75 5.20435 33.75 6V8.25C33.75 9.04565 34.0661 9.80872 34.6287 10.3713C35.1913 10.9339 35.9543 11.25 36.75 11.25H39C39.7956 11.25 40.5587 10.9339 41.1213 10.3713C41.6839 9.80872 42 9.04565 42 8.25V6C42 5.20435 41.6839 4.44129 41.1213 3.87868C40.5587 3.31607 39.7956 3 39 3V3ZM40.5 8.25C40.5 8.64783 40.342 9.02936 40.0607 9.31066C39.7793 9.59197 39.3978 9.75 39 9.75H36.75C36.3522 9.75 35.9706 9.59197 35.6893 9.31066C35.408 9.02936 35.25 8.64783 35.25 8.25V6C35.25 5.60218 35.408 5.22065 35.6893 4.93934C35.9706 4.65804 36.3522 4.5 36.75 4.5H39C39.3978 4.5 39.7793 4.65804 40.0607 4.93934C40.342 5.22065 40.5 5.60218 40.5 6V8.25Z" fill="#A2A2B5"/>
<path d="M29.25 12.75H27C26.2044 12.75 25.4413 13.0661 24.8787 13.6287C24.3161 14.1913 24 14.9544 24 15.75V18C24 18.7957 24.3161 19.5587 24.8787 20.1213C25.4413 20.6839 26.2044 21 27 21H29.25C30.0456 21 30.8087 20.6839 31.3713 20.1213C31.9339 19.5587 32.25 18.7957 32.25 18V15.75C32.25 14.9544 31.9339 14.1913 31.3713 13.6287C30.8087 13.0661 30.0456 12.75 29.25 12.75ZM30.75 18C30.75 18.3978 30.592 18.7794 30.3107 19.0607C30.0294 19.342 29.6478 19.5 29.25 19.5H27C26.6022 19.5 26.2206 19.342 25.9393 19.0607C25.658 18.7794 25.5 18.3978 25.5 18V15.75C25.5 15.3522 25.658 14.9706 25.9393 14.6893C26.2206 14.408 26.6022 14.25 27 14.25H29.25C29.6478 14.25 30.0294 14.408 30.3107 14.6893C30.592 14.9706 30.75 15.3522 30.75 15.75V18Z" fill="#A2A2B5"/>
<path d="M39 12.75H36.75C35.9543 12.75 35.1913 13.0661 34.6287 13.6287C34.0661 14.1913 33.75 14.9544 33.75 15.75V18C33.75 18.7957 34.0661 19.5587 34.6287 20.1213C35.1913 20.6839 35.9543 21 36.75 21H39C39.7956 21 40.5587 20.6839 41.1213 20.1213C41.6839 19.5587 42 18.7957 42 18V15.75C42 14.9544 41.6839 14.1913 41.1213 13.6287C40.5587 13.0661 39.7956 12.75 39 12.75ZM40.5 18C40.5 18.3978 40.342 18.7794 40.0607 19.0607C39.7793 19.342 39.3978 19.5 39 19.5H36.75C36.3522 19.5 35.9706 19.342 35.6893 19.0607C35.408 18.7794 35.25 18.3978 35.25 18V15.75C35.25 15.3522 35.408 14.9706 35.6893 14.6893C35.9706 14.408 36.3522 14.25 36.75 14.25H39C39.3978 14.25 39.7793 14.408 40.0607 14.6893C40.342 14.9706 40.5 15.3522 40.5 15.75V18Z" fill="#A2A2B5"/>
</g>
<defs>
<clipPath id="clip0_404_68">
<rect width="18" height="18" fill="white" transform="translate(24 3)"/>
</clipPath>
</defs>
</svg>
