<svg width="66" height="24" viewBox="0 0 66 24" fill="none" xmlns="http://www.w3.org/2000/svg">
<g clip-path="url(#clip0_404_74)">
<path d="M38.25 4.5H37.5V3.75C37.5 3.55109 37.421 3.36032 37.2803 3.21967C37.1397 3.07902 36.9489 3 36.75 3C36.5511 3 36.3603 3.07902 36.2197 3.21967C36.079 3.36032 36 3.55109 36 3.75V4.5H30V3.75C30 3.55109 29.921 3.36032 29.7803 3.21967C29.6397 3.07902 29.4489 3 29.25 3C29.0511 3 28.8603 3.07902 28.7197 3.21967C28.579 3.36032 28.5 3.55109 28.5 3.75V4.5H27.75C26.7558 4.50119 25.8027 4.89666 25.0997 5.59966C24.3967 6.30267 24.0012 7.2558 24 8.25V17.25C24.0012 18.2442 24.3967 19.1973 25.0997 19.9003C25.8027 20.6033 26.7558 20.9988 27.75 21H38.25C39.2442 20.9988 40.1973 20.6033 40.9003 19.9003C41.6033 19.1973 41.9988 18.2442 42 17.25V8.25C41.9988 7.2558 41.6033 6.30267 40.9003 5.59966C40.1973 4.89666 39.2442 4.50119 38.25 4.5ZM25.5 8.25C25.5 7.65326 25.7371 7.08097 26.159 6.65901C26.581 6.23705 27.1533 6 27.75 6H38.25C38.8467 6 39.419 6.23705 39.841 6.65901C40.2629 7.08097 40.5 7.65326 40.5 8.25V9H25.5V8.25ZM38.25 19.5H27.75C27.1533 19.5 26.581 19.2629 26.159 18.841C25.7371 18.419 25.5 17.8467 25.5 17.25V10.5H40.5V17.25C40.5 17.8467 40.2629 18.419 39.841 18.841C39.419 19.2629 38.8467 19.5 38.25 19.5Z" fill="#A2A2B5"/>
<path d="M33 15.375C33.6213 15.375 34.125 14.8713 34.125 14.25C34.125 13.6287 33.6213 13.125 33 13.125C32.3787 13.125 31.875 13.6287 31.875 14.25C31.875 14.8713 32.3787 15.375 33 15.375Z" fill="#A2A2B5"/>
<path d="M29.25 15.375C29.8713 15.375 30.375 14.8713 30.375 14.25C30.375 13.6287 29.8713 13.125 29.25 13.125C28.6287 13.125 28.125 13.6287 28.125 14.25C28.125 14.8713 28.6287 15.375 29.25 15.375Z" fill="#A2A2B5"/>
<path d="M36.75 15.375C37.3713 15.375 37.875 14.8713 37.875 14.25C37.875 13.6287 37.3713 13.125 36.75 13.125C36.1287 13.125 35.625 13.6287 35.625 14.25C35.625 14.8713 36.1287 15.375 36.75 15.375Z" fill="#A2A2B5"/>
</g>
<defs>
<clipPath id="clip0_404_74">
<rect width="18" height="18" fill="white" transform="translate(24 3)"/>
</clipPath>
</defs>
</svg>
