<svg width="17" height="16" viewBox="0 0 17 16" fill="none" xmlns="http://www.w3.org/2000/svg">
<g clip-path="url(#clip0_32_4487)">
<path fill-rule="evenodd" clip-rule="evenodd" d="M0.5 8.04467C0.5 12.022 3.38867 15.3293 7.16667 16V10.222H5.16667V8H7.16667V6.222C7.16667 4.222 8.45533 3.11133 10.278 3.11133C10.8553 3.11133 11.478 3.2 12.0553 3.28867V5.33333H11.0333C10.0553 5.33333 9.83333 5.822 9.83333 6.44467V8H11.9667L11.6113 10.222H9.83333V16C13.6113 15.3293 16.5 12.0227 16.5 8.04467C16.5 3.62 12.9 0 8.5 0C4.1 0 0.5 3.62 0.5 8.04467Z" fill="white"/>
</g>
<defs>
<clipPath id="clip0_32_4487">
<rect width="16" height="16" fill="white" transform="translate(0.5)"/>
</clipPath>
</defs>
</svg>
