<svg width="17" height="16" viewBox="0 0 17 16" fill="none" xmlns="http://www.w3.org/2000/svg">
<path d="M14.804 6.76938C14.886 7.20871 14.9307 7.66805 14.9307 8.14738C14.9307 11.8967 12.4213 14.5627 8.63133 14.5627C7.76944 14.563 6.91593 14.3934 6.1196 14.0637C5.32326 13.734 4.59969 13.2506 3.99024 12.6411C3.38079 12.0317 2.89739 11.3081 2.56768 10.5118C2.23797 9.71544 2.0684 8.86194 2.06866 8.00005C2.0684 7.13815 2.23797 6.28465 2.56768 5.48831C2.89739 4.69197 3.38079 3.96841 3.99024 3.35895C4.59969 2.7495 5.32326 2.26611 6.1196 1.9364C6.91593 1.60668 7.76944 1.43712 8.63133 1.43738C10.4033 1.43738 11.884 2.08938 13.02 3.14805L11.17 4.99804V4.99338C10.4813 4.33738 9.60733 4.00071 8.63133 4.00071C6.466 4.00071 4.706 5.83005 4.706 7.99605C4.706 10.1614 6.466 11.9947 8.63133 11.9947C10.596 11.9947 11.9333 10.8714 12.208 9.32871H8.63133V6.76938H14.8047H14.804Z" fill="#0E0E12"/>
</svg>
