<svg width="66" height="24" viewBox="0 0 66 24" fill="none" xmlns="http://www.w3.org/2000/svg">
<path d="M41.3408 9.80159L35.652 4.11209C34.9479 3.41008 33.9943 3.01587 33 3.01587C32.0058 3.01587 31.0521 3.41008 30.348 4.11209L24.6593 9.80159C24.4496 10.0099 24.2833 10.2578 24.1702 10.5309C24.057 10.8039 23.9992 11.0968 24 11.3923V18.7551C24 19.3518 24.2371 19.9241 24.659 20.3461C25.081 20.768 25.6533 21.0051 26.25 21.0051H39.75C40.3467 21.0051 40.919 20.768 41.341 20.3461C41.763 19.9241 42 19.3518 42 18.7551V11.3923C42.0009 11.0968 41.943 10.8039 41.8298 10.5309C41.7167 10.2578 41.5504 10.0099 41.3408 9.80159ZM35.25 19.5051H30.75V16.5546C30.75 15.9579 30.9871 15.3856 31.409 14.9636C31.831 14.5416 32.4033 14.3046 33 14.3046C33.5967 14.3046 34.169 14.5416 34.591 14.9636C35.013 15.3856 35.25 15.9579 35.25 16.5546V19.5051ZM40.5 18.7551C40.5 18.954 40.421 19.1448 40.2803 19.2854C40.1397 19.4261 39.9489 19.5051 39.75 19.5051H36.75V16.5546C36.75 15.56 36.3549 14.6062 35.6517 13.9029C34.9484 13.1997 33.9946 12.8046 33 12.8046C32.0054 12.8046 31.0516 13.1997 30.3484 13.9029C29.6451 14.6062 29.25 15.56 29.25 16.5546V19.5051H26.25C26.0511 19.5051 25.8603 19.4261 25.7197 19.2854C25.579 19.1448 25.5 18.954 25.5 18.7551V11.3923C25.5007 11.1936 25.5797 11.0031 25.7198 10.8621L31.4085 5.17484C31.8313 4.75404 32.4035 4.5178 33 4.5178C33.5965 4.5178 34.1687 4.75404 34.5915 5.17484L40.2803 10.8643C40.4198 11.0048 40.4987 11.1944 40.5 11.3923V18.7551Z" fill="white"/>
</svg>
