<svg width="20" height="20" viewBox="0 0 20 20" fill="none" xmlns="http://www.w3.org/2000/svg">
<path d="M14.8267 6.0101C14.4563 4.41784 13.5139 3.01714 12.1784 2.07425C10.843 1.13137 9.20765 0.712031 7.58327 0.895947C5.95889 1.07986 4.4587 1.85421 3.36787 3.0718C2.27704 4.28939 1.67161 5.86535 1.66665 7.5001C1.66594 8.56543 1.92327 9.61508 2.41665 10.5593C1.51759 11.041 0.805321 11.8095 0.393004 12.7424C-0.0193136 13.6754 -0.108025 14.7194 0.140964 15.7085C0.389953 16.6977 0.96236 17.5753 1.76724 18.2019C2.57212 18.8284 3.56331 19.168 4.58332 19.1668H13.3333C14.9659 19.1592 16.5389 18.5528 17.7542 17.4626C18.9694 16.3724 19.7424 14.8742 19.9265 13.252C20.1106 11.6299 19.6931 9.99652 18.7531 8.6617C17.8131 7.32687 16.416 6.38338 14.8267 6.0101ZM13.3333 17.5001H4.58332C3.87367 17.5022 3.18772 17.2449 2.65459 16.7765C2.12145 16.3081 1.77789 15.6611 1.68858 14.9571C1.59928 14.253 1.77038 13.5407 2.16968 12.954C2.56899 12.3674 3.16896 11.9469 3.85665 11.7718C3.98891 11.7377 4.11078 11.6717 4.21153 11.5795C4.31227 11.4873 4.38881 11.3717 4.43441 11.243C4.48001 11.1143 4.49328 10.9763 4.47303 10.8412C4.45279 10.7062 4.39966 10.5781 4.31832 10.4684C3.67761 9.61155 3.332 8.57003 3.33332 7.5001C3.34283 6.23842 3.82898 5.02698 4.69427 4.10873C5.55957 3.19048 6.74003 2.63331 7.99892 2.54896C9.25781 2.46461 10.5021 2.85932 11.4821 3.65393C12.4622 4.44854 13.1056 5.5843 13.2833 6.83343C13.3073 7.01481 13.3903 7.18326 13.5195 7.31278C13.6487 7.4423 13.817 7.5257 13.9983 7.5501C15.2473 7.7278 16.383 8.37108 17.1776 9.35097C17.9722 10.3309 18.3671 11.5749 18.2829 12.8337C18.1988 14.0925 17.6419 15.2729 16.724 16.1383C15.806 17.0038 14.5949 17.4902 13.3333 17.5001Z" fill="#C1C1CD"/>
</svg>
