<svg width="20" height="20" viewBox="0 0 20 20" fill="none" xmlns="http://www.w3.org/2000/svg">
<g clip-path="url(#clip0_32_4622)">
<path d="M15.8333 16.6669H4.16667C3.062 16.6656 2.00296 16.2262 1.22185 15.4451C0.440735 14.664 0.00132321 13.6049 0 12.5003L0 7.50025C0.00132321 6.39559 0.440735 5.33655 1.22185 4.55544C2.00296 3.77432 3.062 3.33491 4.16667 3.33359H15.8333C16.938 3.33491 17.997 3.77432 18.7782 4.55544C19.5593 5.33655 19.9987 6.39559 20 7.50025V12.5003C19.9987 13.6049 19.5593 14.664 18.7782 15.4451C17.997 16.2262 16.938 16.6656 15.8333 16.6669ZM4.16667 5.00025C3.50363 5.00025 2.86774 5.26365 2.3989 5.73249C1.93006 6.20133 1.66667 6.83721 1.66667 7.50025V12.5003C1.66667 13.1633 1.93006 13.7992 2.3989 14.268C2.86774 14.7369 3.50363 15.0003 4.16667 15.0003H15.8333C16.4964 15.0003 17.1323 14.7369 17.6011 14.268C18.0699 13.7992 18.3333 13.1633 18.3333 12.5003V7.50025C18.3333 6.83721 18.0699 6.20133 17.6011 5.73249C17.1323 5.26365 16.4964 5.00025 15.8333 5.00025H4.16667ZM10 13.3336C9.34073 13.3336 8.69626 13.1381 8.1481 12.7718C7.59994 12.4055 7.17269 11.885 6.9204 11.2759C6.66811 10.6668 6.6021 9.99656 6.73072 9.34995C6.85933 8.70335 7.1768 8.10941 7.64298 7.64323C8.10915 7.17706 8.7031 6.85959 9.3497 6.73097C9.9963 6.60235 10.6665 6.66836 11.2756 6.92066C11.8847 7.17295 12.4053 7.60019 12.7716 8.14835C13.1378 8.69652 13.3333 9.34098 13.3333 10.0003C13.3333 10.8843 12.9821 11.7322 12.357 12.3573C11.7319 12.9824 10.8841 13.3336 10 13.3336ZM10 8.33359C9.67036 8.33359 9.34813 8.43134 9.07405 8.61447C8.79997 8.79761 8.58635 9.05791 8.4602 9.36245C8.33405 9.66699 8.30105 10.0021 8.36536 10.3254C8.42967 10.6487 8.5884 10.9457 8.82149 11.1788C9.05458 11.4119 9.35155 11.5706 9.67485 11.6349C9.99815 11.6992 10.3333 11.6662 10.6378 11.5401C10.9423 11.4139 11.2026 11.2003 11.3858 10.9262C11.5689 10.6521 11.6667 10.3299 11.6667 10.0003C11.6667 9.55823 11.4911 9.1343 11.1785 8.82174C10.8659 8.50918 10.442 8.33359 10 8.33359ZM4.16667 6.66692C4.00185 6.66692 3.84073 6.7158 3.70369 6.80736C3.56665 6.89893 3.45984 7.02908 3.39677 7.18135C3.33369 7.33362 3.31719 7.50118 3.34935 7.66283C3.3815 7.82448 3.46087 7.97297 3.57741 8.08951C3.69395 8.20605 3.84244 8.28542 4.00409 8.31758C4.16574 8.34973 4.3333 8.33323 4.48557 8.27015C4.63784 8.20708 4.76799 8.10027 4.85956 7.96323C4.95113 7.82619 5 7.66507 5 7.50025C5 7.27924 4.9122 7.06728 4.75592 6.911C4.59964 6.75472 4.38768 6.66692 4.16667 6.66692ZM15 7.50025C15 7.66507 15.0489 7.82619 15.1404 7.96323C15.232 8.10027 15.3622 8.20708 15.5144 8.27015C15.6667 8.33323 15.8343 8.34973 15.9959 8.31758C16.1576 8.28542 16.306 8.20605 16.4226 8.08951C16.5391 7.97297 16.6185 7.82448 16.6507 7.66283C16.6828 7.50118 16.6663 7.33362 16.6032 7.18135C16.5402 7.02908 16.4333 6.89893 16.2963 6.80736C16.1593 6.7158 15.9982 6.66692 15.8333 6.66692C15.6123 6.66692 15.4004 6.75472 15.2441 6.911C15.0878 7.06728 15 7.27924 15 7.50025ZM4.16667 11.6669C4.00185 11.6669 3.84073 11.7158 3.70369 11.8074C3.56665 11.8989 3.45984 12.0291 3.39677 12.1814C3.33369 12.3336 3.31719 12.5012 3.34935 12.6628C3.3815 12.8245 3.46087 12.973 3.57741 13.0895C3.69395 13.2061 3.84244 13.2854 4.00409 13.3176C4.16574 13.3497 4.3333 13.3332 4.48557 13.2702C4.63784 13.2071 4.76799 13.1003 4.85956 12.9632C4.95113 12.8262 5 12.6651 5 12.5003C5 12.2792 4.9122 12.0673 4.75592 11.911C4.59964 11.7547 4.38768 11.6669 4.16667 11.6669ZM15 12.5003C15 12.6651 15.0489 12.8262 15.1404 12.9632C15.232 13.1003 15.3622 13.2071 15.5144 13.2702C15.6667 13.3332 15.8343 13.3497 15.9959 13.3176C16.1576 13.2854 16.306 13.2061 16.4226 13.0895C16.5391 12.973 16.6185 12.8245 16.6507 12.6628C16.6828 12.5012 16.6663 12.3336 16.6032 12.1814C16.5402 12.0291 16.4333 11.8989 16.2963 11.8074C16.1593 11.7158 15.9982 11.6669 15.8333 11.6669C15.6123 11.6669 15.4004 11.7547 15.2441 11.911C15.0878 12.0673 15 12.2792 15 12.5003Z" fill="#C1C1CD"/>
</g>
<defs>
<clipPath id="clip0_32_4622">
<rect width="20" height="20" fill="white"/>
</clipPath>
</defs>
</svg>
