<svg width="72" height="72" viewBox="0 0 72 72" fill="none" xmlns="http://www.w3.org/2000/svg">
<rect width="72" height="72" rx="24" fill="#ACDCF5"/>
<g clip-path="url(#clip0_102_1891)">
<path d="M40.8733 42.2498L50.5334 32.8217C48.5268 24.8366 40.5573 20.0235 32.7331 22.0713C29.2096 22.9935 26.1492 25.2227 24.1494 28.3236C24.2989 28.3198 40.8733 42.2498 40.8733 42.2498Z" fill="#0364B8"/>
<path d="M30.4455 30.0984L30.445 30.1C28.5991 28.9333 26.4704 28.3166 24.2991 28.3196C24.249 28.3196 24.1997 28.3228 24.1496 28.3234C17.6913 28.4051 12.5206 33.8144 12.6005 40.4055C12.6295 42.7964 13.3615 45.1233 14.7016 47.0845L29.174 45.2347L40.2697 36.1039L30.4455 30.0984Z" fill="#0078D4"/>
<path d="M50.533 32.8216C50.3206 32.8071 50.1072 32.7971 49.8913 32.7971C48.5953 32.7958 47.3129 33.066 46.1233 33.5908L46.1231 33.5898L40.269 36.1039L46.7227 44.2397L58.2602 47.1019C60.75 42.3847 59.0213 36.5008 54.3991 33.9598C53.2048 33.3032 51.8865 32.9152 50.533 32.8217V32.8216H50.533Z" fill="#1490DF"/>
<path d="M14.7017 47.0846C16.8869 50.291 20.4722 52.2019 24.2992 52.1998H49.8919C53.388 52.2008 56.6023 50.243 58.2609 47.1021L40.2697 36.104L14.7017 47.0846Z" fill="#28A8EA"/>
</g>
<defs>
<clipPath id="clip0_102_1891">
<rect width="46.8" height="30.6" fill="white" transform="translate(12.6001 21.6001)"/>
</clipPath>
</defs>
</svg>
