<svg width="32" height="32" viewBox="0 0 32 32" fill="none" xmlns="http://www.w3.org/2000/svg">
<g clip-path="url(#clip0_12_5778)">
<path d="M9.972 26.284C9.75341 26.2839 9.54087 26.2122 9.3669 26.0799C9.19292 25.9475 9.0671 25.7618 9.00869 25.5512C8.95027 25.3406 8.96248 25.1166 9.04345 24.9135C9.12441 24.7105 9.26967 24.5396 9.457 24.427C13 22.299 13 17.729 13 14.999C13 14.2033 13.3161 13.4402 13.8787 12.8776C14.4413 12.315 15.2044 11.999 16 11.999C16.7956 11.999 17.5587 12.315 18.1213 12.8776C18.6839 13.4402 19 14.2033 19 14.999C19 15.2642 18.8946 15.5185 18.7071 15.7061C18.5196 15.8936 18.2652 15.999 18 15.999C17.7348 15.999 17.4804 15.8936 17.2929 15.7061C17.1054 15.5185 17 15.2642 17 14.999C17 14.7337 16.8946 14.4794 16.7071 14.2918C16.5196 14.1043 16.2652 13.999 16 13.999C15.7348 13.999 15.4804 14.1043 15.2929 14.2918C15.1054 14.4794 15 14.7337 15 14.999C15 17.946 15 23.433 10.486 26.142C10.3307 26.2349 10.153 26.284 9.972 26.284ZM14.935 27.705C17.217 25.405 18.55 22.171 18.896 18.084C18.9077 17.9529 18.8933 17.8207 18.8538 17.6952C18.8143 17.5696 18.7504 17.4531 18.6658 17.3523C18.5811 17.2515 18.4774 17.1684 18.3606 17.1078C18.2438 17.0471 18.1161 17.0102 17.985 16.999C17.8538 16.9855 17.7212 16.9986 17.5951 17.0375C17.4691 17.0763 17.3521 17.1401 17.2513 17.2252C17.1504 17.3102 17.0677 17.4146 17.008 17.5322C16.9483 17.6499 16.913 17.7783 16.904 17.91C16.593 21.567 15.485 24.31 13.516 26.291C13.329 26.4791 13.2245 26.7339 13.2253 26.9991C13.2261 27.2644 13.3323 27.5185 13.5205 27.7055C13.7087 27.8924 13.9634 27.997 14.2287 27.9962C14.494 27.9953 14.748 27.8891 14.935 27.701V27.705ZM20.135 27.519C20.7416 26.5111 21.2467 25.4455 21.643 24.338C21.7258 24.0902 21.7085 23.82 21.5946 23.5849C21.4808 23.3498 21.2794 23.1686 21.0337 23.08C20.788 22.9915 20.5174 23.0026 20.2797 23.1109C20.0421 23.2193 19.8562 23.4164 19.762 23.66C19.4099 24.642 18.9617 25.5869 18.424 26.481C18.3558 26.5933 18.3105 26.718 18.2905 26.8478C18.2705 26.9777 18.2763 27.1103 18.3076 27.2379C18.3388 27.3655 18.3949 27.4858 18.4726 27.5917C18.5503 27.6977 18.6482 27.7873 18.7605 27.8555C18.9874 27.9931 19.2597 28.035 19.5174 27.9719C19.6451 27.9406 19.7653 27.8845 19.8713 27.8068C19.9772 27.7291 20.0668 27.6313 20.135 27.519ZM22.5 21.19C22.8705 19.1478 23.038 17.0741 23 14.999C22.9991 13.5823 22.5683 12.1992 21.7646 11.0325C20.9609 9.86585 19.8221 8.9705 18.4987 8.46479C17.1753 7.95909 15.7297 7.86683 14.3528 8.20021C12.9758 8.53359 11.7325 9.27691 10.787 10.332C10.6949 10.429 10.6232 10.5434 10.5762 10.6686C10.5291 10.7938 10.5077 10.9272 10.5131 11.0608C10.5185 11.1945 10.5507 11.3257 10.6077 11.4467C10.6647 11.5677 10.7454 11.676 10.845 11.7652C10.9446 11.8545 11.0611 11.9228 11.1876 11.9663C11.3141 12.0097 11.448 12.0273 11.5815 12.018C11.7149 12.0088 11.8451 11.9728 11.9644 11.9124C12.0837 11.8519 12.1897 11.7681 12.276 11.666C12.9513 10.9122 13.8394 10.3812 14.8229 10.1429C15.8064 9.90468 16.8391 9.97049 17.7845 10.3317C18.7298 10.6928 19.5433 11.3323 20.1174 12.1657C20.6916 12.999 20.9993 13.987 21 14.999C21.0369 16.9458 20.8821 18.8915 20.538 20.808C20.4875 21.0681 20.5423 21.3377 20.6905 21.5574C20.8386 21.7772 21.0679 21.9292 21.328 21.98C21.3915 21.9927 21.4562 21.999 21.521 21.999C21.7526 21.9984 21.9769 21.9174 22.1554 21.7698C22.334 21.6223 22.4558 21.4173 22.5 21.19ZM11 14.999C10.9997 14.7198 11.0228 14.4412 11.069 14.166C11.0989 14.0334 11.1014 13.8962 11.0765 13.7627C11.0516 13.6292 10.9997 13.5021 10.9241 13.3893C10.8485 13.2765 10.7506 13.1802 10.6366 13.1065C10.5225 13.0327 10.3946 12.9829 10.2607 12.9602C10.1268 12.9375 9.98963 12.9423 9.85763 12.9743C9.72563 13.0064 9.60154 13.065 9.49293 13.1465C9.38431 13.2281 9.29346 13.3309 9.2259 13.4488C9.15835 13.5666 9.11551 13.697 9.1 13.832C9.03399 14.2175 9.00054 14.6078 9 14.999C9 19.644 7.654 21.999 5 21.999C4.73478 21.999 4.48043 22.1043 4.29289 22.2918C4.10536 22.4794 4 22.7337 4 22.999C4 23.2642 4.10536 23.5185 4.29289 23.7061C4.48043 23.8936 4.73478 23.999 5 23.999C8.869 23.999 11 20.799 11 14.999ZM24.7 27.413C26.3457 23.4871 27.13 19.2538 27 14.999C27.0046 13.3379 26.6283 11.6979 25.9 10.205C25.8425 10.0868 25.7624 9.98105 25.6641 9.89384C25.5658 9.80663 25.4512 9.73965 25.327 9.6967C25.2028 9.65375 25.0714 9.63569 24.9402 9.64354C24.809 9.65139 24.6807 9.685 24.5625 9.74245C24.4443 9.79991 24.3386 9.88008 24.2514 9.97839C24.1642 10.0767 24.0972 10.1912 24.0542 10.3154C24.0113 10.4396 23.9932 10.5711 24.0011 10.7022C24.0089 10.8334 24.0425 10.9618 24.1 11.08C24.695 12.3005 25.0029 13.6411 25 14.999C25.1259 18.9677 24.4035 22.9177 22.881 26.585C22.8268 26.7047 22.7967 26.834 22.7925 26.9653C22.7883 27.0967 22.8101 27.2276 22.8565 27.3506C22.9029 27.4736 22.9732 27.5862 23.0632 27.682C23.1532 27.7778 23.2612 27.8549 23.381 27.909C23.5105 27.9685 23.6514 27.9992 23.794 27.999C23.9852 27.9981 24.1722 27.9425 24.3328 27.8386C24.4934 27.7348 24.6208 27.587 24.7 27.413ZM7 17.999V14.999C7.00265 12.6128 7.95171 10.3252 9.63896 8.63792C11.3262 6.95066 13.6139 6.0016 16 5.99895C17.9484 5.99246 19.8452 6.62473 21.4 7.79895C21.6122 7.95808 21.8789 8.02641 22.1414 7.9889C22.404 7.9514 22.6409 7.81113 22.8 7.59895C22.9591 7.38678 23.0275 7.12008 22.99 6.85753C22.9524 6.59498 22.8122 6.35808 22.6 6.19895C20.6994 4.76437 18.3812 3.99167 16 3.99895C13.0837 4.00239 10.2878 5.16242 8.22563 7.22458C6.16347 9.28673 5.00344 12.0826 5 14.999V17.999C5 18.2642 5.10536 18.5185 5.29289 18.7061C5.48043 18.8936 5.73478 18.999 6 18.999C6.26522 18.999 6.51957 18.8936 6.70711 18.7061C6.89464 18.5185 7 18.2642 7 17.999Z" fill="#A2A2B5"/>
</g>
<defs>
<clipPath id="clip0_12_5778">
<rect width="24" height="24" fill="white" transform="translate(4 4)"/>
</clipPath>
</defs>
</svg>
