<svg width="20" height="20" viewBox="0 0 20 20" fill="none" xmlns="http://www.w3.org/2000/svg">
<g clip-path="url(#clip0_32_4617)">
<path d="M0 2.5V9.16667H9.16667V0H2.5C1.83696 0 1.20107 0.263392 0.732233 0.732233C0.263392 1.20107 0 1.83696 0 2.5H0ZM7.5 7.5H1.66667V2.5C1.66667 2.27899 1.75446 2.06702 1.91074 1.91074C2.06702 1.75446 2.27899 1.66667 2.5 1.66667H7.5V7.5Z" fill="#C1C1CD"/>
<path d="M0 17.5001C0 18.1631 0.263392 18.799 0.732233 19.2678C1.20107 19.7367 1.83696 20.0001 2.5 20.0001H9.16667V10.8334H0V17.5001ZM1.66667 12.5001H7.5V18.3334H2.5C2.27899 18.3334 2.06702 18.2456 1.91074 18.0893C1.75446 17.933 1.66667 17.7211 1.66667 17.5001V12.5001Z" fill="#C1C1CD"/>
<path d="M16.6666 17.8475V2.15505L18.8199 4.30505L19.9999 3.12588L17.6007 0.730046C17.132 0.262132 16.4968 -0.000671387 15.8345 -0.000671387C15.1722 -0.000671387 14.5369 0.262132 14.0682 0.730046L11.6724 3.12171L12.8499 4.30088L14.9999 2.15171V17.8467L12.8457 15.695L11.6682 16.8742L14.0674 19.27C14.5361 19.738 15.1713 20.0008 15.8336 20.0008C16.4959 20.0008 17.1312 19.738 17.5999 19.27L19.9999 16.8784L18.8224 15.6992L16.6666 17.8475Z" fill="#C1C1CD"/>
</g>
<defs>
<clipPath id="clip0_32_4617">
<rect width="20" height="20" fill="white"/>
</clipPath>
</defs>
</svg>
