<svg width="72" height="72" viewBox="0 0 72 72" fill="none" xmlns="http://www.w3.org/2000/svg">
<rect width="72" height="72" rx="24" fill="#1ED760"/>
<g clip-path="url(#clip0_102_1880)">
<path d="M35.0991 16.2681C23.702 16.2681 14.4624 25.5074 14.4624 36.9045C14.4624 48.302 23.702 57.5406 35.0991 57.5406C46.4974 57.5406 55.736 48.302 55.736 36.9045C55.736 25.5081 46.4974 16.2691 35.0988 16.2691L35.0991 16.2681ZM44.5629 46.0317C44.1933 46.6379 43.3998 46.8301 42.7936 46.458C37.9483 43.4984 31.8487 42.8281 24.6653 44.4693C23.9731 44.6271 23.2831 44.1933 23.1254 43.5009C22.9669 42.8084 23.3989 42.1184 24.0928 41.9607C31.9539 40.164 38.6969 40.938 44.1366 44.2623C44.7428 44.6344 44.935 45.4255 44.5629 46.0317ZM47.0888 40.4119C46.6231 41.1697 45.6324 41.4087 44.8759 40.943C39.3288 37.5326 30.8731 36.5452 24.3119 38.5368C23.461 38.7938 22.5623 38.3143 22.304 37.4649C22.0477 36.6139 22.5275 35.7169 23.377 35.4582C30.8716 33.1842 40.1888 34.2857 46.559 38.2002C47.3155 38.666 47.5546 39.6566 47.0888 40.4121V40.4119ZM47.3057 34.5607C40.6546 30.6102 29.6811 30.247 23.3309 32.1743C22.3112 32.4836 21.2328 31.9079 20.9238 30.8882C20.6147 29.868 21.1899 28.7903 22.2104 28.4803C29.5 26.2674 41.6181 26.6949 49.2756 31.2408C50.1948 31.7852 50.4954 32.9698 49.9508 33.8857C49.4087 34.8029 48.2209 35.1053 47.3067 34.5607H47.3057Z" fill="white"/>
</g>
<defs>
<clipPath id="clip0_102_1880">
<rect width="41.4" height="41.4" fill="white" transform="translate(14.3999 16.2)"/>
</clipPath>
</defs>
</svg>
