<svg width="72" height="72" viewBox="0 0 72 72" fill="none" xmlns="http://www.w3.org/2000/svg">
<rect width="72" height="72" rx="24" fill="#FF0000"/>
<g clip-path="url(#clip0_102_1884)">
<path d="M58.473 24.5878C57.9541 22.7158 56.4343 21.2398 54.5068 20.7358C50.9854 19.7998 36.8998 19.7998 36.8998 19.7998C36.8998 19.7998 22.8142 19.7998 19.2928 20.6998C17.4024 21.2038 15.8455 22.7158 15.3266 24.5878C14.3999 28.0078 14.3999 35.0998 14.3999 35.0998C14.3999 35.0998 14.3999 42.2278 15.3266 45.6118C15.8455 47.4838 17.3653 48.9598 19.2928 49.4638C22.8513 50.3998 36.8998 50.3998 36.8998 50.3998C36.8998 50.3998 50.9854 50.3998 54.5068 49.4998C56.4343 48.9958 57.9541 47.5198 58.473 45.6478C59.3997 42.2278 59.3997 35.1358 59.3997 35.1358C59.3997 35.1358 59.4368 28.0078 58.473 24.5878Z" fill="white"/>
<path d="M44.1278 35.0999L32.4146 28.5479V41.6519L44.1278 35.0999Z" fill="#FF0000"/>
</g>
<defs>
<clipPath id="clip0_102_1884">
<rect width="45" height="30.6" fill="white" transform="translate(14.3999 19.7998)"/>
</clipPath>
</defs>
</svg>
